<svg width="162" height="174" viewBox="0 0 162 174" fill="none" xmlns="http://www.w3.org/2000/svg">
<path d="M80.939 173.749C125.556 173.749 161.725 134.962 161.725 87.1163C161.725 39.2701 125.556 0.483154 80.939 0.483154C36.3222 0.483154 0.153076 39.2701 0.153076 87.1163C0.153076 134.962 36.3222 173.749 80.939 173.749Z" fill="white"/>
<path opacity="0.09" d="M80.939 173.749C125.556 173.749 161.725 134.962 161.725 87.1163C161.725 39.2701 125.556 0.483154 80.939 0.483154C36.3222 0.483154 0.153076 39.2701 0.153076 87.1163C0.153076 134.962 36.3222 173.749 80.939 173.749Z" fill="#367CFF"/>
<path d="M58.6915 37.9781C58.6915 37.9781 59.567 64.0704 75.8068 65.2696L78.5576 30.8623L58.6915 37.9781Z" fill="#0A0A0A"/>
<path d="M61.8191 70.5996C67.1325 70.5996 71.4399 65.9805 71.4399 60.2825C71.4399 54.5845 67.1325 49.9653 61.8191 49.9653C56.5056 49.9653 52.1982 54.5845 52.1982 60.2825C52.1982 65.9805 56.5056 70.5996 61.8191 70.5996Z" fill="#0A0A0A"/>
<path d="M99.4628 77.3794C99.3768 77.3669 98.4264 94.2859 80.098 92.8109C67.4094 91.794 62.8858 77.3573 62.5956 77.3573C64.0455 77.0991 65.4759 76.7271 66.8751 76.2445C68.8728 75.0933 71.3451 73.8957 71.9888 69.7349C72.3601 67.3366 71.7309 55.0674 71.9241 52.6411L91.4009 57.3034C91.1259 62.4273 89.2237 74.3072 95.8998 76.4104C97.0098 76.7578 98.2064 77.0778 99.4628 77.3794Z" fill="#E98862"/>
<path opacity="0.5" d="M91.6731 71.5537C91.3678 70.4983 91.1713 69.4102 91.0871 68.3088C90.8733 65.7983 90.9159 63.2703 91.2144 60.7697C87.2558 60.1966 83.5264 58.4444 80.4499 55.7122C80.0882 57.1443 78.0994 63.4032 78.6502 64.7638C79.6914 67.342 84.5829 71.5537 91.6731 71.5537Z" fill="#0C0C0C"/>
<path d="M88.6219 66.9954C80.9081 67.1009 71.2646 62.9268 70.0693 51.8147L68.991 41.7851C67.7951 30.673 72.2686 20.9886 82.0256 19.7843C91.7819 18.5778 100.043 26.6833 101.239 37.7962L101.716 42.235C102.175 46.5012 102.385 66.8081 88.6219 66.9954Z" fill="#E98862"/>
<path d="M98.9202 41.9372C99.5883 41.9372 100.13 41.3564 100.13 40.64C100.13 39.9236 99.5883 39.3428 98.9202 39.3428C98.2522 39.3428 97.7106 39.9236 97.7106 40.64C97.7106 41.3564 98.2522 41.9372 98.9202 41.9372Z" fill="#0C0C0C"/>
<path d="M86.5561 43.4531C87.2242 43.4531 87.7657 42.8723 87.7657 42.1558C87.7657 41.4394 87.2242 40.8586 86.5561 40.8586C85.888 40.8586 85.3464 41.4394 85.3464 42.1558C85.3464 42.8723 85.888 43.4531 86.5561 43.4531Z" fill="#0C0C0C"/>
<path opacity="0.5" d="M92.6917 52.0323H92.711C93.1062 51.98 93.4986 51.9047 93.8862 51.8066C94.4653 51.6554 95.2286 51.3899 95.1688 50.8339C95.1 50.2011 92.7488 43.5691 92.4806 42.8154C92.469 42.7828 92.4515 42.753 92.4291 42.7276C92.4068 42.7023 92.38 42.6819 92.3503 42.6677C92.3206 42.6534 92.2886 42.6456 92.2561 42.6446C92.2236 42.6437 92.1912 42.6496 92.1608 42.662C92.1304 42.6745 92.1026 42.6932 92.079 42.7171C92.0553 42.7411 92.0363 42.7698 92.0231 42.8017C92.0098 42.8335 92.0025 42.8679 92.0016 42.9027C92.0007 42.9376 92.0062 42.9723 92.0178 43.0049C93.0211 45.8287 94.631 50.4688 94.6764 50.8958C94.0574 51.2695 93.3638 51.4784 92.6539 51.5049C92.5884 51.5103 92.5276 51.5434 92.4848 51.5969C92.4421 51.6503 92.4209 51.7198 92.4259 51.79C92.4309 51.8602 92.4617 51.9254 92.5116 51.9713C92.5614 52.0171 92.6262 52.0398 92.6917 52.0345V52.0323Z" fill="#0C0C0C"/>
<path opacity="0.5" d="M90.9477 56.6568C92.5324 56.5597 94.0736 56.0648 95.4473 55.2121C95.5014 55.1761 95.5405 55.1192 95.5566 55.0531C95.5727 54.987 95.5644 54.9169 95.5336 54.8571C95.5028 54.7973 95.4517 54.7526 95.391 54.7321C95.3303 54.7115 95.2645 54.7168 95.2073 54.7468C92.2406 56.5071 89.4032 56.6089 87.0031 55.0418C86.9547 55.0086 86.9046 54.978 86.8532 54.9503C86.7938 54.9255 86.7276 54.9262 86.6686 54.9523C86.6096 54.9783 86.5622 55.0277 86.5363 55.0903C86.5104 55.1528 86.5079 55.2236 86.5294 55.2881C86.5509 55.3525 86.5947 55.4056 86.6517 55.4363C86.6703 55.4466 86.7019 55.4673 86.7453 55.4961C88.0071 56.323 89.4704 56.7272 90.9477 56.6568Z" fill="#0C0C0C"/>
<path d="M61.0585 44.6359L69.8012 43.6086C76.5261 41.2797 79.3202 29.3018 79.3202 29.3018C79.3202 29.3018 85.3465 36.6506 103.204 33.2952C103.204 33.2952 102.513 8.60623 75.3529 12.0819C65.8965 13.2936 58.7658 23.4632 58.6922 36.7605C58.6413 46.0784 61.0585 44.6359 61.0585 44.6359Z" fill="#0A0A0A"/>
<path d="M71.0396 55.1251C68.0743 55.4939 65.305 52.3877 64.9632 49.2077C64.6214 46.0278 66.8358 43.9776 69.8011 43.6111L71.5581 45.5521L73.5889 54.8095L71.0396 55.1251Z" fill="#E98862"/>
<path d="M94.6419 37.4028C95.5165 36.8838 96.5049 36.626 97.5041 36.6565C97.9975 36.6682 98.4864 36.7594 98.9544 36.9271C99.4194 37.0911 99.8633 37.3173 100.275 37.6004C100.317 37.6285 100.346 37.6726 100.358 37.7235C100.37 37.7745 100.363 37.8283 100.338 37.8737C100.314 37.9191 100.274 37.9528 100.227 37.9675C100.18 37.9823 100.13 37.977 100.086 37.9529L100.074 37.9455C99.6835 37.6968 99.2653 37.5018 98.8293 37.3652C98.3974 37.2268 97.9486 37.1594 97.4979 37.1653C96.6012 37.1701 95.7216 37.4294 94.9486 37.9168L94.9301 37.9293C94.8981 37.9519 94.8623 37.9672 94.8247 37.9745C94.7871 37.9819 94.7485 37.981 94.7112 37.972C94.6739 37.963 94.6387 37.9461 94.6076 37.9221C94.5766 37.8982 94.5503 37.8679 94.5305 37.8328C94.5106 37.7978 94.4975 37.7588 94.492 37.7183C94.4865 37.6777 94.4886 37.6364 94.4983 37.5968C94.508 37.5571 94.5251 37.5199 94.5484 37.4875C94.5718 37.4551 94.601 37.428 94.6344 37.4079L94.6419 37.4028Z" fill="#0C0C0C"/>
<path d="M86.8062 38.9485C85.9513 38.6578 85.0398 38.6158 84.1648 38.8268C83.7241 38.93 83.3005 39.104 82.9084 39.3431C82.5121 39.5808 82.1452 39.8709 81.8163 40.2066L81.806 40.217C81.7686 40.2467 81.7223 40.2606 81.676 40.2561C81.6296 40.2516 81.5865 40.229 81.5546 40.1926C81.5228 40.1562 81.5046 40.1085 81.5034 40.0586C81.5022 40.0087 81.5181 39.9601 81.5481 39.922C81.891 39.5475 82.2764 39.2207 82.6952 38.9493C83.1167 38.6739 83.5743 38.4678 84.0527 38.3379C85.0203 38.0691 86.0375 38.0836 86.9981 38.3799C87.0352 38.3901 87.07 38.4082 87.1005 38.4332C87.1309 38.4581 87.1564 38.4894 87.1753 38.5252C87.1942 38.5609 87.2061 38.6004 87.2105 38.6413C87.2148 38.6821 87.2114 38.7235 87.2004 38.7628C87.1895 38.8022 87.1713 38.8388 87.1468 38.8705C87.1224 38.9021 87.0922 38.9282 87.0582 38.947C87.0241 38.9659 86.9869 38.9772 86.9487 38.9802C86.9105 38.9832 86.8721 38.978 86.8358 38.9648H86.8282L86.8062 38.9485Z" fill="#0C0C0C"/>
<path opacity="0.52" d="M91.1134 59.1693C91.4002 59.1565 91.6855 59.1178 91.9662 59.0535C92.0286 59.0369 92.0826 58.995 92.1167 58.9365C92.1509 58.8781 92.1626 58.8077 92.1493 58.7402C92.136 58.6727 92.0988 58.6133 92.0455 58.5747C91.9923 58.536 91.9271 58.521 91.8637 58.5329C91.4254 58.6703 90.9649 58.7059 90.5128 58.6371C90.0607 58.5682 89.6275 58.3967 89.2422 58.1339C89.1913 58.0893 89.126 58.0683 89.0606 58.0753C88.9952 58.0824 88.9351 58.117 88.8936 58.1715C88.852 58.2261 88.8323 58.2961 88.8389 58.3663C88.8455 58.4364 88.8777 58.5008 88.9286 58.5454C89.5677 59.018 90.3398 59.2385 91.1134 59.1693Z" fill="#0C0C0C"/>
<path opacity="0.1" d="M84.8806 52.2378C86.1525 52.1901 87.1571 51.3403 87.1245 50.3398C87.0918 49.3393 86.0342 48.567 84.7623 48.6147C83.4903 48.6625 82.4857 49.5123 82.5184 50.5128C82.551 51.5133 83.6086 52.2856 84.8806 52.2378Z" fill="#0C0C0C"/>
<path opacity="0.1" d="M98.4929 49.4762C98.5287 50.4754 99.5857 51.2461 100.858 51.2011C101.078 51.1927 101.296 51.1598 101.51 51.103C101.66 49.929 101.753 48.7948 101.803 47.7417C101.46 47.6164 101.099 47.5609 100.738 47.578C99.4681 47.6237 98.464 48.471 98.4929 49.4762Z" fill="#0C0C0C"/>
<path d="M126.836 95.1997C126.781 101.107 124.89 108.15 124.216 116.66C124.037 118.931 119.491 125.502 118.831 132.81C117.999 142.117 119.849 156.631 120.097 162.906C107.318 170.489 92.8631 174.219 78.2666 173.7C63.6702 173.18 49.4774 168.431 37.1956 159.957C36.8655 143.836 36.4735 123.931 35.9715 119.16C34.3417 103.408 34.7818 93.4445 37.1337 88.7837C40.9779 81.1731 47.8204 78.8501 54.9793 77.8028C59.353 77.1686 65.9205 76.7188 65.9205 76.7188C65.9205 76.7188 66.4775 88.7911 79.75 89.4622C97.8157 90.3767 96.6122 76.7188 96.7016 76.7188C103.255 76.7188 115.675 78.4002 120.434 81.881C125.482 85.561 126.898 89.9268 126.836 95.1997Z" fill="#FFC239"/>
<path d="M64.4214 104.389L39.912 161.746C30.5016 155.788 22.3139 147.848 15.8428 138.405L36.2879 90.5581L64.4214 104.389Z" fill="#FFC239"/>
<path d="M146.635 137.538C141.833 144.722 136.038 151.078 129.45 156.388C127.281 158.143 125.029 159.778 122.703 161.284L97.5475 101.977L125.715 88.231L146.635 137.538Z" fill="#FFC239"/>
</svg>
