<svg width="178" height="190" viewBox="0 0 178 190" fill="none" xmlns="http://www.w3.org/2000/svg">
<path d="M88.8967 189.891C137.555 189.891 177 147.59 177 95.41C177 43.2298 137.555 0.929443 88.8967 0.929443C40.2383 0.929443 0.792969 43.2298 0.792969 95.41C0.792969 147.59 40.2383 189.891 88.8967 189.891Z" fill="white"/>
<path opacity="0.09" d="M177.001 95.4077C177.001 114.094 171.834 132.36 162.153 147.897C152.472 163.434 138.713 175.544 122.614 182.695C106.515 189.846 88.801 191.717 71.7108 188.071C54.6206 184.426 38.9223 175.428 26.601 162.215C14.2797 149.001 5.88874 132.167 2.48929 113.84C-0.910156 95.5125 0.834549 76.5159 7.50281 59.2521C14.1711 41.9883 25.4634 27.2327 39.9517 16.8512C54.4401 6.46973 71.4737 0.928622 88.8987 0.928622C100.48 0.882707 111.956 3.29514 122.665 8.0269C133.373 12.7587 143.102 19.7162 151.292 28.4985C159.482 37.2809 165.969 47.7144 170.382 59.1979C174.794 70.6813 177.044 82.9877 177.001 95.4077Z" fill="#367CFF"/>
<path d="M49.8976 39.6833C49.8976 39.6833 49.0118 53.9459 46.019 59.1207C37.4049 74.0175 34.9093 90.7764 43.5357 99.5339C52.1621 108.291 107.185 108.411 111.353 88.2728C114.86 71.3184 107.332 69.4954 105.5 55.5093C104.67 49.1811 102.389 35.9111 102.389 35.9111" fill="#0A0A0A"/>
<path d="M97.1111 85.3177C97.0162 85.3044 95.9627 104.059 75.6455 102.427C61.5808 101.297 56.5662 85.2941 56.2437 85.2941C57.76 84.949 60.3134 84.446 60.9887 84.0611C63.2031 82.7845 65.9436 81.4571 66.6574 76.8442C67.07 74.1893 66.3706 60.586 66.5886 57.8965L88.178 63.0639C87.8768 68.7424 85.7649 81.9136 93.1652 84.2439C94.3927 84.6267 95.7193 84.9814 97.1111 85.3177Z" fill="#E98862"/>
<path opacity="0.5" d="M88.4765 78.8598C88.1387 77.6909 87.921 76.4858 87.8273 75.2662C87.59 72.4831 87.6373 69.6805 87.9683 66.9085C83.5804 66.2738 79.4464 64.332 76.0362 61.3037C75.6352 62.8915 73.4305 69.8288 74.0418 71.3384C75.1979 74.1887 80.6169 78.8598 88.4765 78.8598Z" fill="#0C0C0C"/>
<path d="M85.6851 73.0168C77.1729 73.9017 66.1595 70.2483 63.8784 58.0927L61.8195 47.1243C59.5384 34.9687 63.6425 23.8292 74.3148 21.5261C84.9878 19.2223 94.815 27.3521 97.096 39.5107L98.0079 44.3662C98.8833 49.0307 100.872 71.4408 85.6851 73.0168Z" fill="#E98862"/>
<path opacity="0.1" d="M80.2738 57.0907C81.6745 56.9115 82.7105 55.8728 82.5879 54.7708C82.4653 53.6687 81.2304 52.9206 79.8298 53.0998C78.4291 53.279 77.3931 54.3177 77.5157 55.4198C77.6383 56.5218 78.8732 57.2699 80.2738 57.0907Z" fill="#0C0C0C"/>
<path opacity="0.1" d="M95.0755 52.6829C95.2014 53.7825 96.4358 54.5266 97.8366 54.3525C98.0788 54.3215 98.3173 54.2636 98.5484 54.18C98.613 52.868 98.6171 51.6055 98.5814 50.4373C98.1923 50.3333 97.7886 50.3083 97.391 50.3636C95.9901 50.5398 94.9545 51.5782 95.0755 52.6829Z" fill="#0C0C0C"/>
<path opacity="0.5" d="M88.8864 56.0831H88.907C89.3394 55.9854 89.7664 55.8623 90.1861 55.7143C90.8126 55.4931 91.6303 55.1207 91.5189 54.513C91.3889 53.8198 88.218 46.7291 87.8555 45.9223C87.8217 45.8561 87.7654 45.8064 87.6984 45.7834C87.6314 45.7603 87.5587 45.7657 87.4953 45.7984C87.4319 45.8311 87.3825 45.8886 87.3574 45.9591C87.3324 46.0296 87.3334 46.1077 87.3604 46.1774C88.7131 49.201 90.8924 54.1627 90.9797 54.6288C90.9109 54.8464 89.8718 55.2711 88.7984 55.5034C88.7302 55.5202 88.6707 55.5641 88.6317 55.6263C88.5927 55.6885 88.5772 55.7643 88.5884 55.8382C88.5996 55.9122 88.6366 55.9788 88.692 56.0246C88.7473 56.0703 88.8169 56.0918 88.8864 56.0846V56.0831Z" fill="#0C0C0C"/>
<path d="M53.3038 51.062L62.8723 49.0575C70.1 45.8127 72.1506 32.3082 72.1506 32.3082C72.1506 32.3082 81.0707 41.4181 102.389 35.9092C102.389 35.9092 97.7582 3.99462 66.2798 13.682C56.1295 16.8052 48.9397 27.9004 50.009 42.5951C50.7579 52.8953 53.3038 51.062 53.3038 51.062Z" fill="#0A0A0A"/>
<path d="M65.2359 61.6535C61.9928 62.3534 58.665 59.2 58.0152 55.7214C57.3653 52.2427 59.6312 49.7575 62.8751 49.0576L64.9835 51.0274L68.0273 61.0518L65.2359 61.6535Z" fill="#E98862"/>
<path d="M90.1558 40.2673C90.967 39.6511 91.9163 39.2769 92.9065 39.1832C93.4037 39.1323 93.9051 39.1619 94.394 39.2709C94.8872 39.3785 95.3659 39.552 95.8189 39.7872L95.8334 39.7938C95.8833 39.8155 95.939 39.8158 95.9891 39.7947C96.0392 39.7737 96.0798 39.7329 96.1027 39.6806C96.1256 39.6284 96.129 39.5688 96.1121 39.514C96.0953 39.4592 96.0595 39.4134 96.0122 39.386C95.5323 39.1142 95.0224 38.9086 94.4944 38.7739C93.9631 38.6351 93.4153 38.5829 92.8694 38.619C91.7643 38.6847 90.6957 39.0667 89.7748 39.7252C89.7391 39.7496 89.7083 39.7814 89.6843 39.8187C89.6603 39.8561 89.6435 39.8982 89.635 39.9426C89.6265 39.9871 89.6264 40.0329 89.6347 40.0774C89.643 40.1219 89.6596 40.1641 89.6834 40.2016C89.7072 40.2391 89.7379 40.271 89.7735 40.2956C89.8091 40.3201 89.8488 40.3367 89.8905 40.3444C89.9322 40.3522 89.975 40.3508 90.0162 40.3404C90.0574 40.3301 90.0962 40.311 90.1303 40.2842L90.1372 40.2791L90.1558 40.2673Z" fill="#0C0C0C"/>
<path d="M81.4153 41.5627C80.3289 41.3311 79.2043 41.4164 78.1591 41.8098C77.6424 42.0007 77.1555 42.2742 76.7149 42.6209C76.2756 42.9626 75.878 43.362 75.5314 43.8097C75.4962 43.8543 75.4785 43.9118 75.482 43.9701C75.4855 44.0284 75.51 44.083 75.5503 44.1224C75.5905 44.1617 75.6435 44.1828 75.6979 44.1812C75.7524 44.1795 75.8041 44.1553 75.8423 44.1136L75.8533 44.1011C76.1871 43.6972 76.5672 43.3401 76.9845 43.0384C77.3971 42.7363 77.8499 42.5028 78.3276 42.3459C79.2761 42.027 80.2863 41.983 81.2558 42.2183L81.2798 42.2242C81.3205 42.2358 81.3628 42.2385 81.4045 42.2323C81.4461 42.226 81.4862 42.211 81.5223 42.1879C81.5584 42.1649 81.5899 42.1343 81.6148 42.098C81.6398 42.0618 81.6577 42.0205 81.6676 41.9767C81.6775 41.9329 81.6791 41.8874 81.6724 41.8429C81.6657 41.7984 81.6507 41.7558 81.6285 41.7176C81.6062 41.6794 81.577 41.6463 81.5426 41.6203C81.5083 41.5944 81.4694 41.576 81.4284 41.5664L81.4153 41.5627Z" fill="#0C0C0C"/>
<path d="M62.8785 48.8891C69.3105 46.322 71.4444 41.5587 72.1025 38.0137C72.5276 35.6497 72.4878 33.2165 71.9856 30.8699L71.7861 30.9289C72.2812 33.2449 72.3194 35.6463 71.8983 37.9791C71.2498 41.4651 69.1475 46.1524 62.8063 48.6819L62.8785 48.8891Z" fill="#0C0C0C"/>
<path d="M144.199 81.5827L148.05 67.5708C148.135 67.263 148.278 66.9774 148.472 66.7323C148.665 66.4872 148.903 66.2879 149.172 66.1471C149.441 66.0063 149.734 65.927 150.034 65.9144C150.333 65.9018 150.631 65.956 150.909 66.0737C151.417 66.3083 151.825 66.7366 152.055 67.2756C152.285 67.8147 152.32 68.426 152.153 68.9912L151.328 71.9956L157.966 63.8259C158.69 62.9034 160.127 62.2677 161.038 63.2065C161.411 63.5429 161.666 64.0048 161.762 64.5168C161.859 65.0289 161.79 65.5608 161.568 66.0258C161.578 66.0308 161.587 66.037 161.596 66.0443C161.602 66.0507 161.607 66.0579 161.611 66.0656L162.726 64.6431C162.933 64.3799 163.192 64.1694 163.484 64.0271C163.776 63.8848 164.095 63.8142 164.415 63.8204C164.736 63.8266 165.052 63.9095 165.339 64.0631C165.626 64.2166 165.878 64.4369 166.076 64.708C166.379 65.1415 166.534 65.6736 166.516 66.2153C166.497 66.7569 166.305 67.2753 165.973 67.6836L165.499 68.2891C165.509 68.3121 165.515 68.3372 165.516 68.3628C165.926 68.034 166.43 67.8719 166.941 67.9055C167.451 67.9392 167.934 68.1663 168.302 68.5465C168.694 68.9749 168.921 69.5462 168.938 70.1462C168.954 70.7462 168.759 71.3308 168.391 71.7832L167.212 73.2862C167.242 73.2773 167.274 73.2765 167.305 73.2837C167.336 73.2908 167.365 73.3059 167.39 73.3275C167.418 73.355 167.437 73.3906 167.447 73.43C167.888 73.2459 168.372 73.2223 168.827 73.3629C169.281 73.5035 169.68 73.8004 169.962 74.208C170.25 74.6417 170.393 75.1669 170.368 75.6986C170.343 76.2304 170.151 76.7375 169.824 77.138L159.877 89.8224C158.486 91.5964 156.632 92.8843 154.553 93.521C152.475 94.1578 150.266 94.1143 148.211 93.3962C146.438 92.7772 144.961 91.4414 144.093 89.6728C143.224 87.9042 143.033 85.8422 143.56 83.9249L144.199 81.5827Z" fill="#E98862"/>
<g opacity="0.2">
<path d="M155.032 74.1503C155.072 74.1849 155.123 74.2017 155.174 74.1971C155.225 74.1926 155.273 74.1671 155.307 74.126L161.61 66.3479C161.645 66.3052 161.662 66.2495 161.659 66.1931C161.655 66.1366 161.63 66.0841 161.59 66.047C161.551 66.01 161.499 65.9914 161.446 65.9954C161.393 65.9994 161.344 66.0257 161.31 66.0684L155.006 73.8457C154.989 73.8669 154.976 73.8914 154.968 73.918C154.96 73.9446 154.956 73.9727 154.958 74.0006C154.96 74.0286 154.967 74.0558 154.979 74.0809C154.99 74.106 155.007 74.1283 155.026 74.1466L155.032 74.1503Z" fill="#0C0C0C"/>
</g>
<g opacity="0.2">
<path d="M158.154 77.2257C158.194 77.2606 158.245 77.2776 158.296 77.2731C158.347 77.2686 158.395 77.2428 158.429 77.2014L165.464 68.5214C165.481 68.5002 165.494 68.4757 165.502 68.4491C165.51 68.4225 165.514 68.3945 165.512 68.3665C165.51 68.3386 165.503 68.3113 165.491 68.2862C165.48 68.2612 165.463 68.2388 165.444 68.2205C165.403 68.1853 165.351 68.168 165.299 68.1719C165.247 68.1759 165.199 68.2009 165.163 68.2419L158.133 76.9219C158.116 76.943 158.103 76.9676 158.095 76.9942C158.087 77.0207 158.083 77.0488 158.085 77.0767C158.087 77.1047 158.094 77.132 158.106 77.157C158.117 77.1821 158.134 77.2044 158.153 77.2227L158.154 77.2257Z" fill="#0C0C0C"/>
</g>
<g opacity="0.2">
<path d="M161.518 80.5784C161.557 80.6133 161.608 80.6303 161.66 80.6258C161.711 80.6212 161.759 80.5955 161.793 80.554L167.404 73.6307C167.435 73.5875 167.45 73.5331 167.445 73.4787C167.44 73.4243 167.416 73.374 167.378 73.3381C167.339 73.3022 167.289 73.2835 167.238 73.2858C167.187 73.2881 167.139 73.3112 167.104 73.3504L161.492 80.2745C161.475 80.2957 161.462 80.3202 161.454 80.3468C161.445 80.3734 161.442 80.4015 161.444 80.4294C161.446 80.4574 161.453 80.4846 161.464 80.5097C161.476 80.5347 161.492 80.5571 161.512 80.5754L161.518 80.5784Z" fill="#0C0C0C"/>
</g>
<path d="M167.637 87.6992L152.748 160.133C152.714 160.295 152.679 160.465 152.638 160.627C149.294 164.379 145.672 167.834 141.807 170.958C141.03 171.579 140.253 172.191 139.455 172.781C138.962 172.84 138.466 172.869 137.97 172.869C135.316 172.868 132.709 172.119 130.411 170.696C128.113 169.274 126.204 167.228 124.876 164.764L96.5018 112.114L122.703 95.8828L131.581 112.358L138.087 80.7131L167.637 87.6992Z" fill="#0CBC8B"/>
<path d="M121.816 120.723C121.726 121.873 121.547 123.924 121.3 126.623C120.062 140.421 117.167 171.173 115.826 185.384C98.8848 191.192 80.7049 191.39 63.6575 185.952H63.6506C51.061 181.911 39.476 174.895 29.7474 165.421C29.8024 152.714 29.6305 138.422 28.8328 129.234C26.4465 101.777 28.7021 97.4782 32.4087 93.5032C32.7113 93.1788 33.0277 92.8617 33.344 92.5519C37.1745 88.8203 41.9814 86.3867 48.989 85.3683C53.624 84.6979 60.5972 84.2112 60.5972 84.2112C60.5972 84.2112 61.1887 97.0276 75.2657 97.7356C94.4317 98.7024 93.1526 84.2112 93.2489 84.2112C98.0696 84.2112 108.798 84.5357 115.564 88.2304C115.571 88.2304 115.571 88.2304 115.578 88.2377C116.941 88.9489 118.18 89.9041 119.244 91.0622C126.994 99.8676 123.17 103.633 121.816 120.723Z" fill="#0CBC8B"/>
<path d="M91.7395 58.479C88.9739 59.9869 85.8186 60.4638 82.772 59.8345C82.6665 59.8131 82.5576 59.8243 82.4578 59.8669C82.358 59.9095 82.2716 59.9816 82.2087 60.0749C82.1458 60.1682 82.109 60.2788 82.1026 60.3937C82.0961 60.5086 82.1204 60.6232 82.1724 60.7239C83.0822 62.44 85.2353 65.3743 88.931 64.1789C91.3173 63.4068 92.2195 60.774 92.5537 59.145C92.5769 59.0323 92.5695 58.9148 92.5325 58.8065C92.4954 58.6982 92.4303 58.6034 92.3447 58.5335C92.2592 58.4635 92.1568 58.4212 92.0496 58.4115C91.9423 58.4019 91.8348 58.4253 91.7395 58.479Z" fill="white"/>
<path d="M91.9128 45.2889C92.6507 45.2889 93.2489 44.6474 93.2489 43.856C93.2489 43.0646 92.6507 42.4231 91.9128 42.4231C91.1748 42.4231 90.5765 43.0646 90.5765 43.856C90.5765 44.6474 91.1748 45.2889 91.9128 45.2889Z" fill="#0C0C0C"/>
<path d="M79.0708 47.6998C79.8088 47.6998 80.407 47.0582 80.407 46.2669C80.407 45.4755 79.8088 44.834 79.0708 44.834C78.3328 44.834 77.7346 45.4755 77.7346 46.2669C77.7346 47.0582 78.3328 47.6998 79.0708 47.6998Z" fill="#0C0C0C"/>
<path d="M118.861 151.656C118.852 151.657 118.843 151.657 118.835 151.656C118.78 151.648 118.731 151.617 118.698 151.57C118.665 151.524 118.651 151.465 118.659 151.407L121.021 125.884C121.024 125.855 121.033 125.827 121.046 125.801C121.06 125.776 121.078 125.754 121.1 125.736C121.121 125.718 121.146 125.706 121.173 125.699C121.199 125.691 121.227 125.69 121.254 125.695C121.308 125.703 121.357 125.734 121.39 125.78C121.423 125.827 121.437 125.886 121.43 125.944L119.068 151.467C119.06 151.52 119.035 151.569 118.997 151.603C118.959 151.638 118.911 151.657 118.861 151.656Z" fill="#0C0C0C"/>
<path d="M104.562 150.427L117.474 144.243C117.757 144.108 118.064 144.037 118.374 144.036C118.684 144.035 118.992 144.103 119.276 144.236C119.561 144.368 119.816 144.563 120.027 144.808C120.238 145.052 120.398 145.341 120.499 145.655C120.669 146.243 120.63 146.877 120.388 147.435C120.147 147.993 119.721 148.435 119.193 148.675L116.424 150.003L126.916 150.118C128.085 150.11 129.519 150.899 129.442 152.303C129.446 152.845 129.277 153.373 128.965 153.8C128.653 154.226 128.215 154.527 127.723 154.652C127.726 154.664 127.728 154.676 127.728 154.688C127.727 154.697 127.725 154.706 127.723 154.715L129.522 154.702C129.855 154.7 130.184 154.777 130.485 154.928C130.787 155.079 131.053 155.301 131.265 155.576C131.477 155.852 131.628 156.174 131.709 156.521C131.79 156.867 131.797 157.228 131.732 157.578C131.616 158.127 131.329 158.617 130.917 158.966C130.506 159.315 129.995 159.502 129.47 159.495L128.705 159.501C128.695 159.525 128.681 159.547 128.664 159.565C129.182 159.69 129.642 160.009 129.961 160.463C130.28 160.918 130.438 161.48 130.407 162.048C130.355 162.669 130.087 163.246 129.657 163.664C129.226 164.083 128.664 164.312 128.083 164.305L126.181 164.319C126.208 164.339 126.23 164.366 126.246 164.397C126.261 164.428 126.27 164.463 126.27 164.498C126.268 164.54 126.256 164.58 126.233 164.615C126.667 164.864 127.012 165.258 127.215 165.738C127.418 166.218 127.469 166.756 127.359 167.27C127.234 167.806 126.944 168.282 126.536 168.619C126.128 168.957 125.625 169.137 125.11 169.13L109.067 169.253C106.822 169.27 104.624 168.568 102.754 167.237C100.884 165.905 99.4276 164.006 98.571 161.781C97.8321 159.862 97.8198 157.711 98.5369 155.783C99.254 153.855 100.644 152.303 102.411 151.456L104.562 150.427Z" fill="#E98862"/>
<g opacity="0.2">
<path d="M117.338 154.592C117.338 154.651 117.36 154.707 117.399 154.748C117.437 154.79 117.49 154.813 117.544 154.813L127.521 154.91C127.576 154.91 127.629 154.887 127.668 154.846C127.707 154.805 127.729 154.749 127.729 154.69C127.73 154.632 127.709 154.575 127.67 154.533C127.632 154.491 127.58 154.468 127.525 154.467L117.546 154.371C117.492 154.371 117.439 154.394 117.401 154.435C117.362 154.477 117.34 154.533 117.34 154.592H117.338Z" fill="#0C0C0C"/>
</g>
<g opacity="0.2">
<path d="M117.177 159.312C117.177 159.37 117.199 159.426 117.238 159.468C117.276 159.509 117.329 159.533 117.383 159.533L128.517 159.64C128.572 159.64 128.624 159.617 128.663 159.576C128.702 159.534 128.724 159.478 128.724 159.419C128.722 159.361 128.7 159.306 128.661 159.265C128.623 159.223 128.571 159.2 128.517 159.198L117.383 159.09C117.328 159.09 117.276 159.114 117.237 159.155C117.198 159.197 117.177 159.253 117.177 159.312H117.177Z" fill="#0C0C0C"/>
</g>
<g opacity="0.2">
<path d="M116.975 164.417C116.975 164.476 116.997 164.532 117.035 164.574C117.074 164.615 117.127 164.638 117.181 164.638L126.063 164.725C126.118 164.725 126.17 164.701 126.209 164.66C126.247 164.618 126.269 164.562 126.269 164.503C126.269 164.445 126.247 164.388 126.209 164.347C126.17 164.305 126.118 164.282 126.063 164.282L117.181 164.197C117.127 164.197 117.074 164.22 117.035 164.261C116.997 164.303 116.975 164.359 116.975 164.418V164.417Z" fill="#0C0C0C"/>
</g>
<path d="M108.261 175.082L63.6576 185.952H63.6508C51.0611 181.911 39.4761 174.895 29.7475 165.421C28.7023 164.403 27.6799 163.361 26.6804 162.293C24.9383 160.429 23.2718 158.489 21.6809 156.475L27.9252 102.611C28.6064 98.2688 30.8682 94.3948 34.2129 91.8411C37.5577 89.2873 41.7114 88.2631 45.7604 88.9936C49.8094 89.7241 53.422 92.1496 55.8034 95.7365C58.1848 99.3233 59.1399 103.778 58.4587 108.12L54.5114 158.695L104.245 146.622L108.261 175.082Z" fill="#0CBC8B"/>
<path d="M44.451 160.682C44.4239 160.684 44.3967 160.68 44.3709 160.671C44.345 160.662 44.3212 160.648 44.3006 160.629C44.28 160.61 44.2631 160.587 44.2508 160.561C44.2386 160.535 44.2312 160.506 44.2292 160.477C44.2272 160.448 44.2305 160.419 44.239 160.391C44.2475 160.364 44.261 160.338 44.2787 160.316C44.2964 160.294 44.318 160.276 44.3423 160.263C44.3665 160.249 44.393 160.242 44.42 160.239L54.3916 157.953C54.4184 157.949 54.4458 157.95 54.4721 157.957C54.4985 157.964 54.5233 157.977 54.5451 157.994C54.567 158.011 54.5854 158.033 54.5994 158.058C54.6134 158.083 54.6227 158.11 54.6268 158.139C54.6308 158.168 54.6294 158.197 54.6229 158.225C54.6163 158.254 54.6046 158.28 54.5884 158.303C54.5722 158.327 54.5519 158.347 54.5287 158.362C54.5054 158.376 54.4796 158.386 54.4528 158.391L44.4778 160.677C44.469 160.679 44.46 160.681 44.451 160.682Z" fill="#0C0C0C"/>
<path d="M108.261 175.081C108.273 175.138 108.263 175.197 108.235 175.247C108.207 175.296 108.162 175.332 108.11 175.347L64.7786 186.298C64.5035 186.216 64.2353 186.136 63.9671 186.047L107.808 174.978L103.901 146.954L54.4632 158.392C54.4312 158.397 54.3985 158.395 54.3675 158.385C54.3365 158.375 54.3081 158.357 54.2844 158.334C54.2639 158.307 54.2485 158.277 54.239 158.244C54.2296 158.211 54.2263 158.176 54.2294 158.142L57.0008 129.241C57.0057 129.212 57.0158 129.185 57.0305 129.16C57.0453 129.136 57.0644 129.115 57.0868 129.098C57.1091 129.082 57.1343 129.07 57.1609 129.064C57.1874 129.058 57.2148 129.057 57.2415 129.063C57.2953 129.072 57.3436 129.103 57.3758 129.151C57.408 129.198 57.4215 129.257 57.4134 129.314L54.6833 157.921L103.991 146.46C104.018 146.452 104.046 146.451 104.073 146.456C104.1 146.461 104.126 146.473 104.149 146.49C104.173 146.504 104.193 146.522 104.21 146.545C104.227 146.568 104.239 146.594 104.245 146.622L108.261 175.081Z" fill="#0C0C0C"/>
</svg>
