<svg width="162" height="173" viewBox="0 0 162 173" fill="none" xmlns="http://www.w3.org/2000/svg">
<path d="M81.1239 172.984C125.43 172.984 161.348 134.466 161.348 86.953C161.348 39.4396 125.43 0.922363 81.1239 0.922363C36.8173 0.922363 0.899719 39.4396 0.899719 86.953C0.899719 134.466 36.8173 172.984 81.1239 172.984Z" fill="white"/>
<path opacity="0.09" d="M0.898976 86.9505C0.89884 103.965 5.60371 120.598 14.4186 134.746C23.2335 148.893 35.7626 159.92 50.4213 166.432C65.0801 172.943 81.2103 174.647 96.772 171.327C112.334 168.008 126.628 159.815 137.848 147.783C149.067 135.752 156.708 120.423 159.803 103.735C162.898 87.0468 161.31 69.7492 155.238 54.0294C149.166 38.3096 138.884 24.8736 125.691 15.4206C112.499 5.96755 96.9883 0.921967 81.1217 0.921967C70.5759 0.880343 60.1267 3.07716 50.3761 7.38574C40.6255 11.6943 31.7665 18.0295 24.3094 26.0263C16.8523 34.023 10.9446 43.5233 6.92669 53.9795C2.90883 64.4358 0.860252 75.6413 0.898976 86.9505Z" fill="#367CFF"/>
<path d="M117.526 39.4784C116.245 55.4076 117.433 60.8088 123.6 69.9357C128.803 77.6305 99.2026 71.0898 86.1061 68.5884L97.6628 32.3655C97.6628 32.3655 117.976 33.8847 117.526 39.4784Z" fill="#0A0A0A"/>
<path d="M72.3413 32.8508C68.4771 48.2927 68.911 53.0699 61.3492 61.1791C55.0822 67.9004 79.5077 69.2669 92.6137 71.7087L93.2767 33.4341C93.2767 33.4341 73.6988 27.4282 72.3413 32.8508Z" fill="#0A0A0A"/>
<path d="M73.6437 77.7641C73.7297 77.7515 74.6897 94.8291 93.1893 93.3401C105.996 92.3114 110.562 77.7397 110.856 77.7397C109.393 77.4789 107.949 77.1035 106.537 76.6166C104.52 75.4544 102.025 74.2449 101.375 70.0458C101 67.6247 101.636 55.2411 101.44 52.7891L81.7812 57.4948C82.0563 62.6674 83.9818 74.6586 77.2424 76.7803C76.1194 77.1343 74.9112 77.4573 73.6437 77.7641Z" fill="#E98862"/>
<path opacity="0.5" d="M81.5055 71.8823C81.8136 70.8181 82.0119 69.7208 82.0969 68.6102C82.3133 66.0761 82.2704 63.5243 81.969 61.0002C85.9648 60.4219 89.7292 58.6534 92.8345 55.8955C93.1997 57.3417 95.2071 63.6581 94.6514 65.032C93.5999 67.6294 88.663 71.8823 81.5055 71.8823Z" fill="#0C0C0C"/>
<path d="M84.0479 66.5623C91.7988 67.3662 101.827 64.0417 103.904 52.9731L105.779 42.9855C107.856 31.9169 104.119 21.7738 94.4011 19.6764C84.6826 17.5791 75.7343 24.9862 73.6568 36.0526L72.8274 40.4774C72.0304 44.7215 70.219 65.1287 84.0479 66.5623Z" fill="#E98862"/>
<path d="M115.159 46.1386L106.416 45.1113C89.3094 41.7381 85.12 26.9349 85.12 26.9349C85.12 26.9349 77.9439 37.2086 71.851 34.8494C71.851 34.8494 73.815 10.0772 100.863 14.4305C111.491 16.1406 117.525 25.5883 117.525 38.261C117.525 47.5774 115.159 46.1386 115.159 46.1386Z" fill="#0A0A0A"/>
<path opacity="0.1" d="M91.4818 50.533C91.5934 49.5296 90.65 48.5839 89.3746 48.4207C88.0991 48.2575 86.9747 48.9386 86.863 49.942C86.7514 50.9454 87.6949 51.8911 88.9703 52.0543C90.2457 52.2175 91.3702 51.5364 91.4818 50.533Z" fill="#0C0C0C"/>
<path opacity="0.1" d="M75.5005 48.0468C75.3864 49.0483 74.2627 49.729 72.9863 49.5675C72.7659 49.5389 72.5488 49.486 72.3385 49.4097C72.2794 48.215 72.2759 47.0661 72.3083 46.0019C72.6625 45.9073 73.03 45.8842 73.392 45.934C74.6643 46.0955 75.6078 47.0409 75.5005 48.0468Z" fill="#0C0C0C"/>
<path opacity="0.5" d="M81.1333 51.1438H81.1141C80.7205 51.056 80.3318 50.9447 79.9498 50.8105C79.379 50.6054 78.6322 50.2699 78.7361 49.716C78.8544 49.0855 81.7426 42.6283 82.0714 41.8945C82.085 41.8617 82.1046 41.8322 82.1291 41.8077C82.1535 41.7832 82.1823 41.7642 82.2137 41.7518C82.2451 41.7394 82.2785 41.7339 82.312 41.7357C82.3454 41.7374 82.3782 41.7463 82.4083 41.7618C82.4385 41.7773 82.4655 41.7992 82.4876 41.8261C82.5098 41.853 82.5267 41.8844 82.5373 41.9184C82.548 41.9525 82.5521 41.9884 82.5496 42.0242C82.547 42.06 82.5378 42.0949 82.5225 42.1268C81.2901 44.8761 79.3061 49.3975 79.2264 49.8223C79.8195 50.2541 80.5006 50.527 81.2124 50.618C81.2753 50.6322 81.3308 50.6718 81.3672 50.7286C81.4037 50.7854 81.4183 50.8551 81.4081 50.9232C81.398 50.9912 81.3638 51.0525 81.3126 51.0942C81.2615 51.136 81.1972 51.1551 81.1333 51.1475V51.1438Z" fill="#0C0C0C"/>
<path d="M102.668 56.2152C105.621 56.8523 108.651 53.9814 109.246 50.8139C109.84 47.6465 107.774 45.3833 104.82 44.7461L102.9 46.5396L100.129 55.6672L102.668 56.2152Z" fill="#E98862"/>
<path d="M79.9774 36.7415C79.6128 36.4646 79.2152 36.2413 78.7953 36.0778C78.37 35.9067 77.9248 35.7992 77.4721 35.7585C77.0193 35.7122 76.5626 35.7393 76.1174 35.8389C75.6683 35.9369 75.2325 36.0952 74.8204 36.3101L74.8073 36.316C74.7626 36.3332 74.7136 36.332 74.6697 36.3125C74.6259 36.2931 74.5903 36.2568 74.57 36.2109C74.5497 36.1649 74.546 36.1124 74.5598 36.0637C74.5735 36.0149 74.6036 35.9735 74.6443 35.9473C75.0813 35.7 75.5454 35.5125 76.0259 35.389C76.5101 35.2628 77.0092 35.2156 77.5065 35.2489C78.5136 35.3089 79.4873 35.6576 80.326 36.2585C80.3868 36.3054 80.4281 36.376 80.4411 36.455C80.4541 36.5341 80.4378 36.6155 80.3957 36.6819C80.3535 36.7483 80.2889 36.7945 80.2156 36.8106C80.1422 36.8267 80.0659 36.8114 80.0028 36.7681L79.9959 36.7629L79.9774 36.7415Z" fill="#0C0C0C"/>
<path d="M87.936 37.9216C88.9252 37.7105 89.949 37.7881 90.9006 38.1465C91.3719 38.32 91.8161 38.5686 92.2183 38.8839C92.6184 39.1946 92.9805 39.5581 93.2959 39.9658C93.3301 40.006 93.348 40.0591 93.3457 40.1135C93.3434 40.1678 93.321 40.2189 93.2835 40.2556C93.246 40.2923 93.1965 40.3115 93.1458 40.3091C93.0951 40.3066 93.0474 40.2826 93.0132 40.2424L93.0029 40.2313C92.6983 39.8636 92.3518 39.5385 91.9714 39.2638C91.5955 38.9888 91.183 38.7762 90.748 38.6332C89.8844 38.3429 88.9645 38.3027 88.0818 38.5167L88.0605 38.5226C87.9864 38.5422 87.9082 38.5294 87.8429 38.487C87.7777 38.4447 87.7307 38.3764 87.7125 38.297C87.6943 38.2175 87.7062 38.1336 87.7457 38.0636C87.7851 37.9936 87.8489 37.9433 87.9229 37.9238L87.936 37.9216Z" fill="#0C0C0C"/>
<path d="M43.8487 163.145C40.6949 161.67 38.3354 160.092 32.9501 155.741C29.0641 152.613 25.4527 149.111 22.1609 145.279L49.813 88.8522L51.0151 86.4009L75.9563 100.462L54.3216 144.614L54.2218 144.809L54.4096 145.594" fill="#EA394A"/>
<path d="M135.811 117.754C135.085 126.121 134.928 139.134 134.978 150.704C124.552 160.846 111.819 167.866 98.0599 171.057C84.301 174.248 70.0012 173.498 56.5985 168.882C54.9583 151.434 52.5191 125.793 51.1444 110.004C49.7511 93.6502 45.6538 88.249 56.8364 80.4171C62.9981 77.0536 72.7661 76.7578 77.1563 76.7578C75.6661 92.2594 106.13 94.1672 106.887 76.7578C129.673 79.0425 140.221 79.6104 135.811 117.754Z" fill="#EA394A"/>
<path d="M78.5345 53.3253C81.0528 54.6987 83.9261 55.1329 86.7002 54.5591C86.7964 54.5395 86.8957 54.5498 86.9867 54.5886C87.0777 54.6275 87.1564 54.6934 87.2137 54.7785C87.271 54.8636 87.3045 54.9645 87.3103 55.0693C87.316 55.1741 87.2938 55.2786 87.2462 55.3703C86.421 56.933 84.4569 59.6048 81.092 58.5163C78.9189 57.8128 78.0978 55.419 77.7911 53.933C77.7696 53.83 77.7761 53.7226 77.8098 53.6235C77.8435 53.5243 77.903 53.4377 77.9812 53.3737C78.0595 53.3097 78.1532 53.2711 78.2513 53.2626C78.3493 53.254 78.4476 53.2758 78.5345 53.3253Z" fill="white"/>
<path d="M78.377 41.3147C79.0488 41.3147 79.5935 40.7307 79.5935 40.0102C79.5935 39.2897 79.0488 38.7056 78.377 38.7056C77.7051 38.7056 77.1605 39.2897 77.1605 40.0102C77.1605 40.7307 77.7051 41.3147 78.377 41.3147Z" fill="#0C0C0C"/>
<path d="M90.0706 43.5096C90.7424 43.5096 91.2871 42.9255 91.2871 42.205C91.2871 41.4845 90.7424 40.9004 90.0706 40.9004C89.3987 40.9004 88.854 41.4845 88.854 42.205C88.854 42.9255 89.3987 43.5096 90.0706 43.5096Z" fill="#0C0C0C"/>
<path d="M53.8382 138.168H53.8616C53.911 138.161 53.9556 138.133 53.9856 138.09C54.0156 138.047 54.0286 137.994 54.0218 137.941L51.8707 114.701C51.8678 114.674 51.86 114.649 51.8477 114.626C51.8354 114.602 51.8189 114.582 51.7991 114.566C51.7793 114.55 51.7566 114.539 51.7325 114.532C51.7085 114.526 51.6834 114.525 51.6589 114.529C51.6344 114.532 51.6108 114.541 51.5895 114.554C51.5682 114.568 51.5495 114.586 51.5346 114.607C51.5197 114.628 51.5089 114.652 51.5027 114.677C51.4966 114.703 51.4951 114.73 51.4986 114.756L53.6491 137.997C53.6559 138.045 53.6788 138.089 53.7136 138.121C53.7483 138.152 53.7926 138.169 53.8382 138.168Z" fill="#0C0C0C"/>
<path d="M51.0262 120.469H29.0689V149.347H51.0262V120.469Z" fill="white"/>
<path d="M42.0345 134.909C42.035 133.002 42.5627 131.137 43.551 129.552C44.5394 127.966 45.944 126.731 47.5872 126.001C49.2304 125.272 51.0384 125.081 52.7826 125.453C54.5268 125.826 56.1289 126.744 57.3863 128.093C58.6436 129.442 59.4998 131.16 59.8465 133.031C60.1932 134.901 60.0149 136.84 59.3342 138.602C58.6534 140.364 57.5007 141.87 56.0219 142.929C54.5431 143.989 52.8046 144.554 51.0261 144.554C48.6418 144.551 46.3559 143.534 44.6701 141.726C42.9844 139.917 42.0365 137.466 42.0345 134.909ZM45.7171 134.909C45.7171 136.035 46.0285 137.135 46.6119 138.072C47.1952 139.008 48.0244 139.738 48.9944 140.169C49.9645 140.6 51.032 140.712 52.0619 140.493C53.0917 140.273 54.0377 139.731 54.7801 138.934C55.5226 138.138 56.0283 137.124 56.2331 136.019C56.4379 134.915 56.3328 133.77 55.931 132.73C55.5292 131.69 54.8487 130.801 53.9756 130.175C53.1026 129.549 52.0761 129.215 51.0261 129.215C49.6186 129.217 48.2692 129.818 47.2739 130.885C46.2786 131.952 45.7188 133.399 45.7171 134.909Z" fill="white"/>
<path d="M50.8515 138.483C50.9253 137.994 51.1571 137.549 51.5063 137.225C51.8555 136.902 52.2997 136.72 52.7612 136.713C52.7485 136.693 52.7394 136.671 52.7344 136.647L52.0804 136.495C51.6246 136.398 51.214 136.136 50.918 135.752C50.622 135.368 50.4588 134.886 50.4561 134.387C50.4603 134.075 50.5292 133.767 50.6577 133.487C50.7862 133.206 50.9712 132.96 51.1993 132.766C51.4274 132.571 51.6929 132.433 51.9767 132.362C52.2605 132.291 52.5555 132.288 52.8403 132.354L54.3828 132.711C54.3828 132.705 54.3828 132.699 54.3828 132.693C54.3863 132.68 54.3909 132.667 54.3966 132.654C53.9946 132.452 53.6685 132.109 53.4714 131.682C53.2743 131.256 53.2179 130.77 53.3114 130.304C53.4799 129.081 54.849 128.678 55.8517 128.91L59.8472 129.677L58.4986 128.719C58.0732 128.402 57.7755 127.925 57.6656 127.383C57.5557 126.84 57.6418 126.274 57.9065 125.797C58.0512 125.556 58.2401 125.349 58.4617 125.189C58.6834 125.029 58.9331 124.918 59.1958 124.865C59.4584 124.812 59.7284 124.817 59.9892 124.879C60.2501 124.942 60.4964 125.06 60.713 125.228L76.8181 144.992L73.2421 143.253C72.1323 145.003 70.5603 146.358 68.7275 147.144C66.8948 147.93 64.8849 148.111 62.9556 147.664L54.2219 145.623C53.7659 145.526 53.3552 145.264 53.059 144.88C52.7629 144.495 52.5996 144.013 52.5969 143.515C52.6033 143.066 52.7435 142.63 52.997 142.272C53.2504 141.914 53.6039 141.652 54.0059 141.524C53.9933 141.492 53.9888 141.458 53.9929 141.424C53.9976 141.392 54.0098 141.361 54.0283 141.335C54.0468 141.31 54.071 141.289 54.0988 141.276L52.4868 140.903C51.979 140.797 51.5277 140.488 51.2241 140.039C50.9206 139.589 50.7874 139.033 50.8515 138.483Z" fill="#E98862"/>
<path opacity="0.2" d="M57.2999 133.407C57.3419 133.398 57.3794 133.373 57.4061 133.337C57.4328 133.301 57.4469 133.256 57.4461 133.21C57.4453 133.164 57.4296 133.119 57.4017 133.084C57.3737 133.049 57.3353 133.026 57.293 133.018L54.5952 132.528C54.5709 132.523 54.5457 132.523 54.5213 132.528C54.4968 132.533 54.4736 132.544 54.453 132.559C54.4324 132.574 54.4149 132.593 54.4014 132.615C54.388 132.638 54.3789 132.663 54.3747 132.689C54.3706 132.716 54.3714 132.743 54.3772 132.769C54.383 132.795 54.3936 132.819 54.4084 132.84C54.4232 132.862 54.4419 132.88 54.4634 132.894C54.4848 132.907 54.5086 132.916 54.5333 132.919L57.2311 133.409C57.2539 133.413 57.2773 133.413 57.2999 133.407Z" fill="#0C0C0C"/>
<path opacity="0.2" d="M56.6487 137.499C56.6907 137.49 56.7283 137.465 56.7551 137.429C56.7819 137.393 56.7962 137.348 56.7955 137.302C56.7949 137.256 56.7793 137.212 56.7515 137.177C56.7238 137.142 56.6855 137.118 56.6432 137.11L52.9476 136.407C52.9231 136.401 52.8978 136.4 52.8731 136.405C52.8484 136.41 52.8248 136.42 52.8039 136.435C52.783 136.45 52.7651 136.469 52.7513 136.492C52.7375 136.514 52.7281 136.539 52.7237 136.566C52.7193 136.592 52.72 136.619 52.7258 136.646C52.7315 136.672 52.7421 136.697 52.757 136.718C52.7719 136.74 52.7907 136.758 52.8123 136.772C52.834 136.785 52.858 136.794 52.8829 136.797L56.5786 137.501C56.6018 137.505 56.6256 137.505 56.6487 137.499Z" fill="#0C0C0C"/>
<path opacity="0.2" d="M55.97 141.936C56.0123 141.926 56.0502 141.901 56.0769 141.865C56.1037 141.828 56.1177 141.783 56.1165 141.736C56.1152 141.69 56.0988 141.645 56.0702 141.611C56.0416 141.576 56.0024 141.553 55.9596 141.546L54.2067 141.258C54.1597 141.253 54.1127 141.268 54.0755 141.299C54.0382 141.33 54.0135 141.376 54.0063 141.426C53.9992 141.476 54.0102 141.527 54.0371 141.569C54.064 141.61 54.1048 141.639 54.1511 141.65L55.9039 141.938C55.9259 141.942 55.9483 141.941 55.97 141.936Z" fill="#0C0C0C"/>
<path d="M146.998 136.039C137.117 151.277 122.918 162.691 106.508 168.587L106.502 168.581C102.858 167.816 68.0885 153.094 63.4892 152.127L68.5217 126.951C81.4435 129.708 105.011 140.338 118.006 143.106L108.838 98.5282C108.505 96.5591 108.541 94.5389 108.943 92.5847C109.344 90.6305 110.103 88.7812 111.176 87.1441C112.249 85.5069 113.614 84.1145 115.193 83.0474C116.771 81.9804 118.532 81.2601 120.372 80.9282C122.212 80.5963 124.095 80.6594 125.912 81.1139C127.73 81.5685 129.445 82.4053 130.958 83.576C132.471 84.7467 133.753 86.2279 134.728 87.9337C135.704 89.6396 136.354 91.5361 136.64 93.5134L146.998 136.039Z" fill="#EA394A"/>
<path d="M127.856 146.388C127.903 146.387 127.948 146.367 127.982 146.332C128.016 146.298 128.037 146.251 128.04 146.201C128.044 146.151 128.03 146.101 128.001 146.061C127.972 146.022 127.93 145.995 127.884 145.986L118.113 142.432C118.089 142.428 118.064 142.429 118.04 142.435C118.016 142.441 117.993 142.452 117.973 142.468C117.953 142.484 117.936 142.504 117.924 142.527C117.911 142.55 117.903 142.575 117.899 142.601C117.892 142.654 117.905 142.708 117.934 142.751C117.964 142.794 118.008 142.822 118.058 142.83L127.828 146.385C127.837 146.387 127.847 146.388 127.856 146.388Z" fill="#0C0C0C"/>
<path d="M118.263 142.602C118.269 142.665 118.251 142.728 118.213 142.777C118.192 142.799 118.166 142.815 118.137 142.824C118.109 142.834 118.079 142.836 118.05 142.831L68.8346 127.253L63.9025 152.032L106.283 168.66C106.151 168.708 106.013 168.754 105.882 168.801C105.788 168.835 105.694 168.868 105.594 168.896L63.6267 152.371C63.5792 152.357 63.5385 152.325 63.5129 152.28C63.4873 152.235 63.4788 152.181 63.4892 152.129L68.5217 126.953C68.5277 126.927 68.5386 126.904 68.5536 126.883C68.5686 126.862 68.5875 126.845 68.609 126.832C68.6298 126.816 68.6535 126.806 68.6785 126.801C68.7034 126.797 68.729 126.798 68.7534 126.805L117.85 142.403L112.292 117.828C112.285 117.775 112.298 117.722 112.327 117.679C112.356 117.637 112.4 117.608 112.449 117.6C112.473 117.595 112.498 117.595 112.522 117.6C112.546 117.605 112.569 117.616 112.59 117.631C112.61 117.646 112.628 117.665 112.641 117.687C112.655 117.709 112.664 117.734 112.668 117.76L118.263 142.602Z" fill="#0C0C0C"/>
</svg>
