<svg width="170" height="181" viewBox="0 0 170 181" fill="none" xmlns="http://www.w3.org/2000/svg">
<path d="M85.0675 180.398C131.521 180.398 169.178 140.014 169.178 90.1988C169.178 40.3834 131.521 0 85.0675 0C38.6143 0 0.956543 40.3834 0.956543 90.1988C0.956543 140.014 38.6143 180.398 85.0675 180.398Z" fill="white"/>
<path opacity="0.09" d="M85.0675 180.398C131.521 180.398 169.178 140.014 169.178 90.1988C169.178 40.3834 131.521 0 85.0675 0C38.6143 0 0.956543 40.3834 0.956543 90.1988C0.956543 140.014 38.6143 180.398 85.0675 180.398Z" fill="#367CFF"/>
<path d="M101.331 36.186C101.331 36.186 106.657 29.9957 106.246 18.2051C105.927 9.07601 99.2455 16.3275 99.2455 16.3275C99.2455 16.3275 98.956 9.75669 94.7067 11.239C90.4575 12.7213 89.1509 19.9367 89.1509 19.9367" fill="#0C0C0C"/>
<path d="M72.2984 16.3645C72.2984 16.3645 51.0865 23.0496 64.2118 52.9657L66.149 52.7312L70.0813 52.2563" fill="#0C0C0C"/>
<path d="M102.359 83.9978C102.262 83.9845 101.19 103.069 80.5155 101.402C66.2032 100.252 61.0999 83.9683 60.7719 83.9683C62.315 83.6165 64.222 83.0833 64.9798 82.8997C66.6317 82.4886 68.1277 81.5479 69.2688 80.2028C70.4099 78.8576 71.142 77.1717 71.3678 75.3694C71.7866 72.6644 71.0762 58.8251 71.2949 56.0884L93.2639 61.3465C92.9572 67.1275 90.8089 80.528 98.3391 82.8997C99.5928 83.2928 100.943 83.6541 102.359 83.9978Z" fill="#E98862"/>
<path opacity="0.52" d="M93.5729 77.4237C93.2291 76.2344 93.0075 75.0083 92.912 73.7674C92.6707 70.9354 92.7189 68.0836 93.0557 65.2629C88.5905 64.6166 84.3838 62.64 80.9138 59.5579C80.5053 61.1737 78.2621 68.2334 78.8831 69.7688C80.0577 72.6715 85.575 77.4237 93.5729 77.4237Z" fill="#0C0C0C"/>
<path d="M89.9865 71.3483C81.3216 72.1838 70.1362 68.3866 67.8937 56.0001L65.8698 44.8238C63.6272 32.4344 67.8758 21.1327 78.751 18.8687C89.6261 16.6039 99.5729 24.9528 101.816 37.3393L102.71 42.2869C102.991 43.9914 103.162 45.7144 103.223 47.444C103.417 52.0163 103.696 58.9655 101.646 64.1026C99.7125 68.9537 95.5238 70.8151 89.9865 71.3483Z" fill="#E98862"/>
<path opacity="0.5" d="M91.2965 59.1026C92.8835 59.0705 94.4412 58.6391 95.8442 57.843C95.8747 57.8282 95.9021 57.8069 95.9247 57.7804C95.9473 57.754 95.9648 57.7229 95.9759 57.689C95.987 57.6551 95.9917 57.6192 95.9895 57.5834C95.9874 57.5476 95.9785 57.5126 95.9634 57.4805C95.9483 57.4485 95.9274 57.42 95.9018 57.3969C95.8761 57.3737 95.8464 57.3564 95.8144 57.3459C95.7824 57.3354 95.7487 57.3319 95.7155 57.3357C95.6822 57.3395 95.6499 57.3505 95.6207 57.368C92.5949 59.006 89.7554 58.9905 87.4124 57.3282C87.3652 57.2931 87.3163 57.2606 87.2659 57.2309C87.2367 57.2155 87.2049 57.2064 87.1725 57.2042C87.14 57.2019 87.1074 57.2066 87.0766 57.2178C87.0458 57.2291 87.0173 57.2468 86.9929 57.2698C86.9684 57.2929 86.9485 57.3209 86.9341 57.3522C86.9198 57.3835 86.9113 57.4176 86.9092 57.4524C86.9071 57.4872 86.9115 57.5222 86.922 57.5552C86.9325 57.5883 86.9489 57.6188 86.9704 57.645C86.9919 57.6712 87.018 57.6926 87.0472 57.708C87.0658 57.7191 87.0961 57.7412 87.1387 57.7714C88.3702 58.6491 89.8179 59.1126 91.2965 59.1026Z" fill="#0C0C0C"/>
<path opacity="0.52" d="M91.3728 61.6223C91.6598 61.6214 91.9462 61.5943 92.2289 61.5412C92.261 61.5353 92.2917 61.5228 92.3192 61.5042C92.3467 61.4856 92.3706 61.4614 92.3894 61.433C92.4082 61.4045 92.4216 61.3724 92.4288 61.3384C92.436 61.3044 92.4369 61.2692 92.4315 61.2348C92.426 61.2004 92.4143 61.1675 92.397 61.138C92.3797 61.1085 92.3571 61.0829 92.3305 61.0627C92.304 61.0426 92.274 61.0282 92.2423 61.0205C92.2106 61.0127 92.1778 61.0117 92.1457 61.0176C91.7028 61.1366 91.2414 61.153 90.7921 61.0658C90.3428 60.9785 89.916 60.7897 89.5401 60.5117C89.4906 60.4669 89.4267 60.4446 89.3621 60.4497C89.2975 60.4548 89.2374 60.4868 89.1945 60.5389C89.1517 60.591 89.1296 60.659 89.133 60.7284C89.1364 60.7978 89.1651 60.8629 89.2127 60.9099C89.8342 61.4082 90.5976 61.66 91.3728 61.6223Z" fill="#0C0C0C"/>
<path d="M99.2133 45.4075C99.9668 45.4075 100.578 44.7524 100.578 43.9443C100.578 43.1363 99.9668 42.4812 99.2133 42.4812C98.4597 42.4812 97.8489 43.1363 97.8489 43.9443C97.8489 44.7524 98.4597 45.4075 99.2133 45.4075Z" fill="#0C0C0C"/>
<path d="M85.9462 47.0708C86.6997 47.0708 87.3105 46.4157 87.3105 45.6077C87.3105 44.7996 86.6997 44.1445 85.9462 44.1445C85.1926 44.1445 84.5818 44.7996 84.5818 45.6077C84.5818 46.4157 85.1926 47.0708 85.9462 47.0708Z" fill="#0C0C0C"/>
<path d="M69.2526 59.6327C65.9475 60.3208 62.582 57.087 61.9397 53.5427C61.2974 49.9984 63.6238 47.4866 66.9282 46.7986L69.06 48.8185L72.0927 59.0413L69.2526 59.6327Z" fill="#E98862"/>
<path d="M71.5845 53.2845C71.5845 53.2845 69.738 35.5005 74.5223 33.4518C77.7084 32.0868 86.5803 35.5617 93.755 32.6C96.8936 31.3036 100.126 31.5676 100.717 33.1539C100.952 33.7815 101.396 24.0181 95.1042 17.895C90.0951 13.0203 76.5613 13.996 70.8397 17.024C54.9973 25.4083 66.3759 47.7026 66.3759 47.7026L68.1433 53.6142L71.5845 53.2845Z" fill="#0C0C0C"/>
<g opacity="0.52">
<path d="M93.3306 54.6981H93.3519C94.4178 54.4769 96.1825 53.985 96.0339 53.1303C95.9067 52.4216 92.733 45.1472 92.3726 44.3205C92.3573 44.2853 92.3355 44.2537 92.3087 44.2275C92.282 44.2013 92.2506 44.181 92.2165 44.1678C92.1824 44.1546 92.1462 44.1487 92.11 44.1505C92.0738 44.1522 92.0383 44.1617 92.0054 44.1782C91.9726 44.1947 91.9431 44.218 91.9187 44.2467C91.8943 44.2754 91.8753 44.309 91.863 44.3456C91.8507 44.3822 91.8452 44.421 91.8468 44.4598C91.8485 44.4987 91.8573 44.5368 91.8727 44.572C93.2797 47.7932 95.4047 52.7579 95.4913 53.2409C95.4226 53.4621 94.3553 53.8891 93.2522 54.1155C93.1792 54.1272 93.1136 54.1694 93.0697 54.233C93.0258 54.2965 93.0072 54.3762 93.018 54.4544C93.0289 54.5326 93.0683 54.603 93.1275 54.6501C93.1868 54.6972 93.2611 54.7171 93.334 54.7055L93.3306 54.6981Z" fill="#0C0C0C"/>
</g>
<path d="M94.0844 36.8733C95.1507 36.3251 96.3354 36.0957 97.5132 36.2096C98.091 36.2617 98.6582 36.4064 99.196 36.6388C99.727 36.8652 100.229 37.1625 100.691 37.5238C100.777 37.5873 100.836 37.684 100.857 37.7936C100.877 37.9031 100.857 38.0169 100.801 38.111C100.745 38.2052 100.657 38.2723 100.556 38.2982C100.454 38.3242 100.348 38.3069 100.258 38.2502L100.227 38.2384C99.8082 37.9517 99.3577 37.7225 98.8858 37.5562C98.4218 37.3901 97.937 37.3003 97.4479 37.29C96.4837 37.2612 95.5295 37.5062 94.682 38.0002L94.6469 38.0216C94.5779 38.0638 94.5019 38.091 94.4232 38.1017C94.3444 38.1125 94.2644 38.1064 94.1878 38.084C94.1112 38.0616 94.0395 38.0232 93.9767 37.971C93.914 37.9189 93.8614 37.854 93.822 37.78C93.7826 37.7061 93.7572 37.6246 93.7472 37.5401C93.7372 37.4556 93.7429 37.3699 93.7638 37.2877C93.7847 37.2056 93.8205 37.1287 93.8691 37.0613C93.9178 36.994 93.9783 36.9377 94.0472 36.8954L94.0844 36.8733Z" fill="#0C0C0C"/>
<path d="M86.2618 39.1404C85.3331 38.8617 84.3522 38.8508 83.4182 39.1087C82.9436 39.2353 82.4895 39.4385 82.0717 39.7112C81.6452 39.9858 81.2525 40.3165 80.9026 40.6957L80.8806 40.7193C80.8053 40.7976 80.7044 40.8412 80.5995 40.8408C80.4946 40.8404 80.394 40.7961 80.3191 40.7174C80.2442 40.6386 80.201 40.5316 80.1986 40.4191C80.1962 40.3067 80.2349 40.1977 80.3064 40.1153C80.6809 39.6521 81.1086 39.2415 81.5793 38.8934C82.0557 38.5383 82.5788 38.2617 83.1314 38.0726C83.6838 37.8773 84.2586 37.7641 84.8397 37.7363C85.4347 37.7012 86.0314 37.7568 86.6119 37.9015C86.768 37.9406 86.9032 38.0446 86.9878 38.1907C87.0724 38.3367 87.0995 38.5128 87.063 38.6802C87.0265 38.8477 86.9295 38.9927 86.7933 39.0834C86.6571 39.1741 86.4929 39.2031 86.3368 39.164L86.301 39.1537L86.2618 39.1404Z" fill="#0C0C0C"/>
<path d="M90.4462 25.0912C92.8053 24.0659 93.5769 20.2161 92.1696 16.4924C90.7624 12.7686 87.7091 10.581 85.3501 11.6063C82.991 12.6315 82.2194 16.4813 83.6267 20.2051C85.0339 23.9289 88.0871 26.1164 90.4462 25.0912Z" fill="#0C0C0C"/>
<path d="M130.932 103.718C131.015 109.832 128.787 116.705 128.044 126.012C127.893 127.9 127.535 132.059 127.061 137.48C126.284 146.455 125.183 158.866 124.22 170.053C110.452 177.803 94.9518 181.314 79.4371 180.197C63.9223 179.08 48.9987 173.379 36.3196 163.726C36.017 163.483 35.7144 163.247 35.4119 163.018C34.6073 150.37 33.6582 137.096 32.7918 128.711C31.1619 113.055 28.9407 105.26 30.1854 99.9941C30.2851 99.5457 30.4185 99.1067 30.5843 98.6814C34.1671 89.3599 45.5759 85.2006 53.3056 84.0796C58.0232 83.3938 65.1202 82.8997 65.1202 82.8997C65.1202 82.8997 65.7185 95.9381 80.0431 96.6608C99.546 97.649 98.2463 82.8997 98.3426 82.8997C101.499 82.8997 118.698 85.3628 122.996 88.3717C123.717 88.8733 124.406 89.4251 125.059 90.0236C126.927 91.6938 128.423 93.79 129.439 96.1592C130.455 98.5284 130.965 101.111 130.932 103.718Z" fill="#383838"/>
<path d="M59.1235 113.173L36.3196 163.726C36.017 163.483 35.7144 163.247 35.4118 163.018C26.5718 156.067 19.0747 147.341 13.3369 137.325L30.1854 99.9943L30.8524 98.512L59.1235 113.173Z" fill="#383838"/>
<path d="M56.9228 118.991L36.182 163.615C36.0444 163.505 35.9138 163.401 35.7762 163.305L56.4895 118.762C56.5193 118.7 56.5705 118.653 56.6322 118.631C56.6938 118.609 56.7611 118.614 56.8196 118.644C56.8762 118.676 56.9188 118.73 56.9381 118.795C56.9574 118.86 56.9519 118.93 56.9228 118.991Z" fill="white"/>
<path d="M162.085 126.513C157.951 136.56 152.146 145.717 144.954 153.534L127.061 137.479L104.332 117.081L125.059 90.0235L125.121 89.9424L162.085 126.513Z" fill="#383838"/>
<path d="M127.336 137.677C127.395 137.673 127.45 137.648 127.492 137.604C127.534 137.561 127.56 137.502 127.565 137.44L128.746 122.595C128.752 122.526 128.732 122.458 128.69 122.405C128.649 122.353 128.59 122.32 128.526 122.314C128.463 122.309 128.4 122.331 128.351 122.375C128.302 122.419 128.271 122.482 128.265 122.55L127.084 137.396C127.079 137.464 127.099 137.532 127.14 137.584C127.181 137.637 127.24 137.67 127.304 137.676L127.336 137.677Z" fill="white"/>
</svg>
