<svg width="174" height="187" viewBox="0 0 174 187" fill="none" xmlns="http://www.w3.org/2000/svg">
<path d="M173.089 97.1567C172.537 112.117 168.616 126.711 161.661 139.692C154.706 152.674 144.924 163.656 133.15 171.702C121.376 179.747 107.961 184.616 94.0505 185.892C80.1402 187.169 66.1487 184.815 53.2714 179.031C47.2318 176.317 41.5037 172.866 36.2001 168.746C26.0633 160.898 17.6265 150.795 11.4666 139.128V139.118C4.8986 126.639 1.11832 112.697 0.422821 98.3868C-0.27268 84.0769 2.13554 69.7889 7.45823 56.6454C12.7809 43.5019 20.8731 31.861 31.099 22.6373C41.325 13.4135 53.406 6.85823 66.3931 3.4864C79.3801 0.114565 92.9194 0.0180425 105.947 3.20443C118.975 6.39081 131.136 12.7733 141.475 21.8504C151.815 30.9276 160.051 42.4521 165.536 55.5185C171.021 68.5849 173.606 82.8374 173.088 97.156L173.089 97.1567Z" fill="white"/>
<path opacity="0.09" d="M173.089 97.1567C172.537 112.117 168.616 126.711 161.661 139.692C154.706 152.674 144.924 163.656 133.15 171.702C121.376 179.747 107.961 184.616 94.0505 185.892C80.1402 187.169 66.1487 184.815 53.2714 179.031C47.2318 176.317 41.5037 172.866 36.2001 168.746C26.0633 160.898 17.6265 150.795 11.4666 139.128V139.118C4.8986 126.639 1.11832 112.697 0.422821 98.3868C-0.27268 84.0769 2.13554 69.7889 7.45823 56.6454C12.7809 43.5019 20.8731 31.861 31.099 22.6373C41.325 13.4135 53.406 6.85823 66.3931 3.4864C79.3801 0.114565 92.9194 0.0180425 105.947 3.20443C118.975 6.39081 131.136 12.7733 141.475 21.8504C151.815 30.9276 160.051 42.4521 165.536 55.5185C171.021 68.5849 173.606 82.8374 173.088 97.156L173.089 97.1567Z" fill="#367CFF"/>
<path d="M107.164 22.9829C107.164 22.9829 127.826 23.2543 120.702 53.7891L118.762 53.8909L114.823 54.0966" fill="#0C0C0C"/>
<path d="M84.0931 85.8251C84.1894 85.8155 84.5704 104.861 105.214 104.061C119.506 103.51 125.174 87.5072 125.501 87.5205C123.977 87.1068 121.408 86.4881 120.74 86.0707C118.543 84.685 115.815 83.224 115.261 78.5205C114.942 75.8095 116.147 62.0602 116.028 59.3264L93.9643 63.6517C94.0619 69.4201 95.7186 82.8509 88.1354 84.9003C86.8728 85.2395 85.516 85.5426 84.0931 85.8251Z" fill="#E98862"/>
<path opacity="0.52" d="M93.0778 79.6454C93.4635 78.4755 93.7285 77.2637 93.868 76.0319C94.2103 73.2219 94.265 70.3803 94.0309 67.5576C98.5002 67.0992 102.76 65.3056 106.326 62.3806C106.674 64.003 108.654 71.1284 107.977 72.6314C106.705 75.4736 101.041 79.9773 93.0778 79.6454Z" fill="#0C0C0C"/>
<path d="M98.0862 76.2803C106.735 75.6165 117.169 69.9698 117.531 57.4011L117.859 46.0626C118.221 33.4961 112.357 23.1045 101.327 22.7387C90.294 22.37 81.7528 32.286 81.3904 44.8524L81.246 49.8723C81.2241 51.5975 81.3118 53.3222 81.5087 55.0346C81.9983 59.5626 82.759 66.4476 85.5393 71.149C88.1635 75.5871 92.5606 76.7028 98.0862 76.2803Z" fill="#E98862"/>
<path d="M116.736 61.2094C120.089 61.3201 122.918 57.5634 123.022 53.9682C123.126 50.3731 120.465 48.2993 117.112 48.188L115.314 50.5398L113.853 61.1136L116.736 61.2094Z" fill="#E98862"/>
<path d="M81.9579 58.8296C82.5636 59.5998 83.3393 60.1953 84.2144 60.5619C85.0895 60.9285 86.0363 61.0545 86.9684 60.9285C88.9627 60.6593 90.2852 61.5369 91.9501 61.3606C93.3474 61.2131 93.5895 60.5206 95.9744 60.3695C105.181 59.7846 112.089 59.1622 112.538 46.7735L118.396 41.1931C118.396 41.1931 121.014 75.5237 103.699 80.0871C93.0586 82.8895 83.0795 81.8651 81.7963 71.149C80.7537 62.4417 81.9579 58.8296 81.9579 58.8296Z" fill="#0C0C0C"/>
<path d="M86.3199 51.6601C87.0708 51.6601 87.6794 51.0073 87.6794 50.2021C87.6794 49.3969 87.0708 48.7441 86.3199 48.7441C85.569 48.7441 84.9603 49.3969 84.9603 50.2021C84.9603 51.0073 85.569 51.6601 86.3199 51.6601Z" fill="#0C0C0C"/>
<path d="M98.4659 51.3886C99.2168 51.3886 99.8255 50.7358 99.8255 49.9306C99.8255 49.1254 99.2168 48.4727 98.4659 48.4727C97.7151 48.4727 97.1064 49.1254 97.1064 49.9306C97.1064 50.7358 97.7151 51.3886 98.4659 51.3886Z" fill="#0C0C0C"/>
<path d="M113.498 55.3644C113.498 55.3644 112.667 37.5575 107.657 36.3606C104.32 35.5634 96.1113 40.5 88.6134 38.8141C85.3338 38.0767 82.1945 38.8879 81.8479 40.5501C81.7103 41.2079 79.115 35.3739 84.3923 28.275C88.5935 22.6231 102.255 21.0331 108.332 23.0316C125.161 28.567 117.791 48.9853 117.791 48.9853L116.932 55.1018L113.498 55.3644Z" fill="#0C0C0C"/>
<path d="M121.145 41.0056C126.099 41.0056 130.114 36.6995 130.114 31.3876C130.114 26.0757 126.099 21.7695 121.145 21.7695C116.192 21.7695 112.176 26.0757 112.176 31.3876C112.176 36.6995 116.192 41.0056 121.145 41.0056Z" fill="#0C0C0C"/>
<g opacity="0.52">
<path d="M92.1144 60.7883H92.0931C91.0127 60.7552 89.2048 60.5708 89.2254 59.7043C89.2447 58.986 91.283 51.2883 91.5154 50.4122C91.5354 50.3369 91.5824 50.2732 91.6462 50.2351C91.71 50.197 91.7853 50.1876 91.8555 50.209C91.9257 50.2304 91.9851 50.2809 92.0207 50.3493C92.0562 50.4177 92.0649 50.4984 92.045 50.5737C91.14 53.983 89.7893 59.2323 89.7755 59.7183C89.8766 59.9262 90.9893 60.1608 92.1082 60.1954C92.1812 60.1945 92.2515 60.2248 92.3036 60.2795C92.3558 60.3342 92.3855 60.4088 92.3864 60.4871C92.3872 60.5653 92.359 60.6407 92.308 60.6966C92.257 60.7526 92.1873 60.7845 92.1144 60.7854V60.7883Z" fill="#0C0C0C"/>
</g>
<path d="M88.8252 45.2484C87.7089 44.8939 86.5242 44.8685 85.3956 45.1747C84.8401 45.3211 84.3083 45.5563 83.8181 45.8723C83.3325 46.1822 82.8854 46.5566 82.4874 46.9866C82.4184 47.0529 82.3767 47.1459 82.3716 47.2452C82.3665 47.3444 82.3984 47.4418 82.4602 47.5158C82.5221 47.5898 82.6087 47.6345 82.7013 47.6399C82.7938 47.6454 82.8846 47.6112 82.9536 47.5449L82.9749 47.5257C83.346 47.1667 83.7577 46.8593 84.2004 46.6105C84.6361 46.3629 85.1042 46.1874 85.5889 46.0899C86.5455 45.8893 87.5345 45.9634 88.4559 46.3045L88.4909 46.3185C88.556 46.3455 88.6254 46.3584 88.6951 46.3563C88.7649 46.3543 88.8335 46.3373 88.8971 46.3065C88.9607 46.2757 89.0179 46.2316 89.0654 46.1768C89.1129 46.1221 89.1498 46.0577 89.1738 45.9875C89.1979 45.9172 89.2086 45.8426 89.2055 45.7678C89.2024 45.6931 89.1854 45.6198 89.1556 45.5522C89.1258 45.4845 89.0837 45.424 89.0318 45.374C88.9799 45.324 88.9193 45.2856 88.8534 45.261L88.8252 45.2484Z" fill="#0C0C0C"/>
<path d="M96.8354 46.3061C97.7213 45.8698 98.6991 45.6929 99.6694 45.7935C100.161 45.8397 100.643 45.9657 101.099 46.1674C101.562 46.3687 101.999 46.6316 102.401 46.9499L102.423 46.9661C102.498 47.0184 102.588 47.038 102.676 47.0208C102.764 47.0037 102.843 46.9511 102.895 46.8738C102.948 46.7966 102.971 46.7006 102.96 46.6056C102.949 46.5105 102.905 46.4237 102.836 46.3629C102.4 45.9764 101.921 45.6503 101.41 45.3924C100.893 45.129 100.343 44.9503 99.7767 44.8621C98.6254 44.6761 97.4487 44.8256 96.3698 45.295C96.2431 45.3537 96.143 45.4636 96.0912 45.6008C96.0394 45.738 96.04 45.8916 96.093 46.0283C96.1459 46.1651 96.2469 46.2739 96.3742 46.3314C96.5014 46.3889 96.6446 46.3904 96.7728 46.3356L96.7983 46.3238L96.8354 46.3061Z" fill="#0C0C0C"/>
<path d="M151.915 133.382C151.146 139.609 150.396 148.161 149.725 157.004C147.106 159.993 144.306 162.793 141.342 165.386C139.458 167.027 137.514 168.587 135.509 170.066C124.669 178.001 112.288 183.19 99.3026 185.24C86.3172 187.29 73.0672 186.148 60.5541 181.899C60.3836 173.685 60.1512 162.606 59.9201 152.455C59.6553 140.746 59.3878 130.263 59.2441 126.818C58.6513 113.147 55.272 104.025 57.8268 96.5663C58.5906 94.3585 59.8187 92.3691 61.4158 90.7529C67.3678 84.5058 82.1525 84.6481 88.0824 84.8952C88.1856 84.8996 86.3536 99.5759 105.864 99.3989C120.205 99.2728 121.28 86.2765 121.28 86.2765C121.28 86.2765 128.347 87.0648 133.04 87.9387C140.716 89.3805 145.706 92.3996 149.59 96.9085C153.213 101.113 155.35 105.576 151.915 133.382Z" fill="#367CFF"/>
<path d="M37.2125 86.3423L37.8025 70.6822C37.816 70.3378 37.7624 69.9941 37.6451 69.6732C37.5278 69.3523 37.3495 69.0611 37.1214 68.8182C36.8933 68.5753 36.6204 68.3861 36.3203 68.2626C36.0202 68.1392 35.6995 68.0841 35.3784 68.101C34.7871 68.1523 34.2346 68.4371 33.828 68.9004C33.4214 69.3637 33.1897 69.9723 33.1778 70.6084L33.0512 73.9668L28.9271 63.2124C28.4884 62.0081 27.2313 60.8311 26.0038 61.4483C25.517 61.6526 25.1092 62.0279 24.847 62.5127C24.5847 62.9976 24.4834 63.5634 24.5596 64.118C24.548 64.1195 24.5364 64.1223 24.5252 64.1261C24.5175 64.1308 24.5101 64.1362 24.5032 64.1423L23.8265 62.2854C23.7011 61.9414 23.5056 61.6318 23.2544 61.3791C23.0032 61.1264 22.7026 60.937 22.3745 60.8247C22.0463 60.7125 21.699 60.6801 21.3577 60.7301C21.0164 60.78 20.6899 60.911 20.4018 61.1135C19.9541 61.4421 19.6252 61.9256 19.4701 62.4831C19.315 63.0406 19.3431 63.6383 19.5498 64.1762L19.8379 64.9661C19.8205 64.9857 19.8063 65.0084 19.796 65.0332C19.486 64.5482 19.0253 64.1972 18.4962 64.0428C17.9671 63.8884 17.4041 63.9406 16.9077 64.1902C16.3718 64.4812 15.9579 64.9782 15.7486 65.582C15.5393 66.1857 15.55 66.8519 15.7785 67.4476L16.4937 69.4108C16.4654 69.3906 16.4331 69.378 16.3994 69.3739C16.3657 69.3698 16.3315 69.3743 16.2997 69.3872C16.2627 69.4048 16.2313 69.4335 16.209 69.4698C15.8208 69.1196 15.3361 68.9158 14.8294 68.8899C14.3227 68.8639 13.8221 69.0171 13.4046 69.326C12.9723 69.6602 12.6579 70.141 12.5121 70.6906C12.3663 71.2403 12.3978 71.8266 12.6013 72.3547L18.6372 88.9175C19.4816 91.2346 20.9519 93.2284 22.8599 94.6435C24.7678 96.0586 27.0263 96.8304 29.346 96.86C31.3462 96.8854 33.2769 96.0735 34.728 94.5968C36.179 93.12 37.0359 91.0949 37.1169 88.9514L37.2125 86.3423Z" fill="#E98862"/>
<g opacity="0.2">
<path d="M28.5909 74.7853C28.5387 74.807 28.4806 74.8058 28.4292 74.7821C28.3778 74.7584 28.3371 74.714 28.3158 74.6585L24.4077 64.4246C24.3953 64.3965 24.3884 64.3659 24.3875 64.3348C24.3865 64.3037 24.3914 64.2727 24.4019 64.2437C24.4125 64.2147 24.4284 64.1884 24.4487 64.1662C24.4691 64.144 24.4934 64.1265 24.5203 64.1147C24.5472 64.1029 24.5759 64.0971 24.605 64.0977C24.634 64.0982 24.6626 64.1051 24.689 64.1179C24.7155 64.1307 24.7393 64.1491 24.7589 64.172C24.7785 64.195 24.7935 64.222 24.8031 64.2513L28.7113 74.4852C28.7219 74.513 28.7274 74.5428 28.7273 74.5729C28.7271 74.603 28.7215 74.6328 28.7106 74.6605C28.6998 74.6883 28.6839 74.7135 28.664 74.7346C28.644 74.7558 28.6204 74.7725 28.5944 74.7838L28.5909 74.7853Z" fill="#0C0C0C"/>
</g>
<g opacity="0.2">
<path d="M24.4297 76.7589C24.3775 76.7807 24.3193 76.7796 24.2678 76.7557C24.2163 76.7318 24.1756 76.6871 24.1546 76.6313L19.7933 65.2102C19.7728 65.1544 19.7736 65.0922 19.7955 65.037C19.8174 64.9818 19.8585 64.9381 19.9102 64.9152C19.9623 64.8952 20.0194 64.897 20.0704 64.92C20.1213 64.9431 20.1623 64.9859 20.1853 65.0398L24.5466 76.4609C24.568 76.5172 24.5677 76.5802 24.5457 76.6362C24.5238 76.6922 24.4821 76.7366 24.4297 76.7596V76.7589Z" fill="#0C0C0C"/>
</g>
<g opacity="0.2">
<path d="M19.9342 78.9235C19.882 78.9453 19.8238 78.9442 19.7723 78.9203C19.7208 78.8964 19.6801 78.8517 19.6592 78.7959L16.1801 69.686C16.1587 69.6298 16.159 69.5669 16.1808 69.5109C16.2027 69.455 16.2444 69.4106 16.2967 69.3877C16.3491 69.3647 16.4077 69.3649 16.4599 69.3884C16.5121 69.4118 16.5534 69.4565 16.5749 69.5127L20.056 78.6204C20.0773 78.6766 20.077 78.7396 20.0551 78.7956C20.0332 78.8516 19.9915 78.896 19.9391 78.919L19.9342 78.9235Z" fill="#0C0C0C"/>
</g>
<path d="M85.5525 110.894L50.0125 169.49C48.7194 171.62 46.9881 173.404 44.9518 174.704C41.923 172.913 39 170.923 36.1995 168.746C30.2304 164.127 24.8365 158.709 20.1488 152.624L12.6839 90.5554L42.5593 85.4219L45.9655 115.298L59.6148 92.7958L85.5525 110.894Z" fill="#367CFF"/>
<path d="M89.7191 63.9852C92.9791 64.2174 96.2183 63.2778 98.9246 61.3148C99.0185 61.2473 99.1284 61.2098 99.2414 61.2067C99.3545 61.2037 99.466 61.2352 99.5629 61.2977C99.6599 61.3601 99.7383 61.4508 99.7889 61.5593C99.8395 61.6677 99.8603 61.7893 99.8488 61.91C99.6308 63.9749 98.6798 67.7728 94.6396 68.2566C92.0312 68.5686 90.1407 66.4203 89.1882 64.9918C89.1224 64.893 89.0842 64.776 89.0783 64.6547C89.0723 64.5334 89.0988 64.4128 89.1545 64.3071C89.2103 64.2014 89.2931 64.1149 89.3931 64.0579C89.4931 64.0009 89.6062 63.9756 89.7191 63.9852Z" fill="white"/>
<path d="M161.552 139.968C156.3 149.678 149.453 158.29 141.342 165.386C139.458 167.027 137.514 168.587 135.509 170.066L121.628 113.435L152.889 104.617L161.552 139.968Z" fill="#367CFF"/>
<path d="M135.813 169.845C135.714 169.914 135.607 169.992 135.509 170.066C135.411 170.14 135.311 170.214 135.212 170.282L124.633 127.14L125.3 126.954L135.813 169.845Z" fill="#0C0C0C"/>
<path d="M60.004 155.123C59.918 155.119 59.8364 155.081 59.7755 155.016C59.7145 154.951 59.6784 154.863 59.6745 154.771L58.9924 138.694C58.9882 138.596 59.0206 138.501 59.0821 138.429C59.1437 138.356 59.2296 138.313 59.3208 138.309C59.4119 138.305 59.501 138.339 59.5684 138.405C59.6358 138.471 59.6759 138.563 59.68 138.661L60.3616 154.738C60.3657 154.835 60.3335 154.931 60.2722 155.003C60.2108 155.075 60.1252 155.118 60.0342 155.123H60.004Z" fill="#0C0C0C"/>
</svg>
